<svg width="627" height="627" viewBox="0 0 627 627" fill="none" xmlns="http://www.w3.org/2000/svg">
<g filter="url(#filter0_d_3_15)">
<path fill-rule="evenodd" clip-rule="evenodd" d="M498.506 110.417L325.505 50.1915C317.103 47.2695 307.942 47.2695 299.54 50.1915L127.016 110.417C121.134 112.5 117.194 117.975 117.194 124.164C117.194 130.354 121.134 135.858 127.016 137.906L163.746 150.707C156.47 160.109 151.348 171.036 148.722 182.813C141.703 185.699 136.777 192.484 136.777 200.339C136.777 206.262 139.723 211.343 144.084 214.836L128.889 303.509C127.891 309.305 132.493 314.602 138.545 314.602H174.174C180.224 314.602 184.828 309.318 183.83 303.515L168.636 214.842C172.999 211.349 175.942 205.755 175.942 200.339C175.942 194.216 172.776 189.014 168.158 185.527C170.76 174.958 176.04 165.4 183.42 157.539L216.799 169.158C212.514 174.256 208.687 179.701 205.375 185.44L204.582 185.164L204.361 187.236C195.774 202.779 190.929 220.397 190.929 239.064C190.929 249.811 192.534 260.209 195.534 270.063L195.525 270.146C195.525 274.555 197.2 278.811 200.327 282.83C218.8 323.931 262.511 352.814 313.5 352.814C366.597 352.814 411.801 321.493 428.833 277.671C429.217 276.825 429.537 275.971 429.792 275.109C433.865 263.782 436.071 251.663 436.071 239.064C436.071 219.573 430.789 201.226 421.48 185.19L421.473 185.122L421.446 185.131C418.122 179.413 414.285 173.989 409.994 168.912L499.026 137.918C504.932 135.829 508.848 130.354 508.848 124.164C508.848 117.975 504.932 112.5 498.506 110.417ZM299.232 444.525L267.536 395.471H359.464L327.768 444.525L359.656 554.632L397.481 411.378C471.406 422.042 528 481.405 528 553.032C528 568.051 514.785 580.314 498.602 580.314H128.417C112.167 580.314 99 568.051 99 553.032C99 481.405 155.584 422.042 229.519 411.378L267.344 554.632L299.232 444.525ZM333.652 195.728C338.925 203.666 345.907 210.802 354.453 216.537C368.11 225.704 383.561 229.82 398.33 229.261C402.374 246.585 400.787 264.87 392.541 281.444C372.415 321.894 320.242 336.844 276.01 314.836C231.777 292.828 212.235 242.196 232.36 201.747C232.644 201.177 232.934 200.612 233.23 200.053C238.022 204.25 243.461 207.927 249.486 210.925C279.745 225.98 314.765 218.913 333.652 195.728Z" fill="black"/>
<rect x="30.5" y="30.5" width="566" height="566" stroke="#DB0202" stroke-width="5"/>
</g>
<defs>
<filter id="filter0_d_3_15" x="-4" y="0" width="635" height="635" filterUnits="userSpaceOnUse" color-interpolation-filters="sRGB">
<feFlood flood-opacity="0" result="BackgroundImageFix"/>
<feColorMatrix in="SourceAlpha" type="matrix" values="0 0 0 0 0 0 0 0 0 0 0 0 0 0 0 0 0 0 127 0" result="hardAlpha"/>
<feOffset dy="4"/>
<feGaussianBlur stdDeviation="2"/>
<feComposite in2="hardAlpha" operator="out"/>
<feColorMatrix type="matrix" values="0 0 0 0 0 0 0 0 0 0 0 0 0 0 0 0 0 0 0.25 0"/>
<feBlend mode="normal" in2="BackgroundImageFix" result="effect1_dropShadow_3_15"/>
<feBlend mode="normal" in="SourceGraphic" in2="effect1_dropShadow_3_15" result="shape"/>
</filter>
</defs>
</svg>
