<svg width="562" height="571" viewBox="0 0 562 571" fill="none" xmlns="http://www.w3.org/2000/svg">
<path fill-rule="evenodd" clip-rule="evenodd" d="M470.506 73.4173L297.505 13.1915C289.103 10.2695 279.942 10.2695 271.54 13.1915L99.0162 73.4173C93.134 75.5002 89.1942 80.9752 89.1942 87.1644C89.1942 93.3536 93.134 98.8585 99.0162 100.906L135.746 113.707C128.47 123.109 123.348 134.036 120.722 145.813C113.703 148.699 108.777 155.484 108.777 163.339C108.777 169.262 111.723 174.343 116.084 177.836L100.889 266.509C99.8913 272.305 104.493 277.602 110.545 277.602H146.174C152.224 277.602 156.828 272.318 155.83 266.515L140.636 177.842C144.999 174.349 147.942 168.755 147.942 163.339C147.942 157.216 144.776 152.014 140.158 148.527C142.76 137.958 148.04 128.4 155.42 120.539L188.799 132.158C184.514 137.256 180.687 142.701 177.375 148.44L176.582 148.164L176.361 150.236C167.774 165.779 162.929 183.397 162.929 202.064C162.929 212.811 164.534 223.209 167.534 233.063L167.525 233.146C167.525 237.555 169.2 241.811 172.327 245.83C190.8 286.931 234.511 315.814 285.5 315.814C338.597 315.814 383.801 284.494 400.833 240.672C401.217 239.825 401.537 238.971 401.792 238.108C405.865 226.782 408.071 214.663 408.071 202.064C408.071 182.573 402.789 164.226 393.48 148.19L393.473 148.122L393.446 148.131C390.122 142.413 386.285 136.989 381.994 131.912L471.026 100.918C476.932 98.8287 480.848 93.3536 480.848 87.1644C480.848 80.9752 476.932 75.5002 470.506 73.4173ZM331.464 358.471L331.465 359H331.122L331.464 358.471ZM500 516.032C500 444.405 405.39 369.135 331.464 358.471H324.529L286.5 396.5L248.471 358.471H239.536C165.6 369.135 71 444.405 71 516.032C71 531.051 84.1669 543.314 100.417 543.314H470.602C486.785 543.314 500 531.051 500 516.032ZM286.5 396.5L311.5 499.5L286.5 524.5L261.5 499.5L286.5 396.5ZM239.535 359L239.536 358.471L239.878 359H239.535ZM243.502 131.505C239.156 129.716 234.302 129.644 229.345 130.649C220.587 138.276 213.125 147.754 207.6 158.858C185.677 202.921 202.574 255.891 245.341 277.17C288.109 298.449 340.551 279.979 362.474 235.915C377.667 205.381 374.217 170.57 356.435 144.991C343.656 137.879 321.722 130.643 295.502 142.505C280.423 149.326 243.502 192.505 243.502 192.505C243.502 192.505 266.717 141.064 243.502 131.505Z" fill="black"/>
<rect x="2.5" y="2.5" width="557" height="566" stroke="#DB0202" stroke-width="5"/>
</svg>
